<mxfile host="app.diagrams.net" agent="Mozilla/5.0 (Windows NT 10.0; Win64; x64) AppleWebKit/537.36 (KHTML, like Gecko) Chrome/127.0.0.0 Safari/537.36" version="24.7.6">
  <diagram name="Halaman-1" id="5nGwywaSWKXZqOQTzC-v">
    <mxGraphModel dx="880" dy="468" grid="1" gridSize="10" guides="1" tooltips="1" connect="1" arrows="1" fold="1" page="1" pageScale="1" pageWidth="827" pageHeight="1169" math="0" shadow="0">
      <root>
        <mxCell id="0" />
        <mxCell id="1" parent="0" />
        <mxCell id="xdf3shguOyV5-pTlWLsu-1" value="" style="rounded=0;whiteSpace=wrap;html=1;rotation=90;" vertex="1" parent="1">
          <mxGeometry x="251.5" y="147.5" width="340" height="205" as="geometry" />
        </mxCell>
        <mxCell id="xdf3shguOyV5-pTlWLsu-3" value="ORDER" style="ellipse;whiteSpace=wrap;html=1;" vertex="1" parent="1">
          <mxGeometry x="361" y="130" width="120" height="60" as="geometry" />
        </mxCell>
        <mxCell id="xdf3shguOyV5-pTlWLsu-4" value="PENCARIAN&lt;div&gt;MENU&lt;/div&gt;" style="ellipse;whiteSpace=wrap;html=1;" vertex="1" parent="1">
          <mxGeometry x="361.5" y="200" width="120" height="60" as="geometry" />
        </mxCell>
        <mxCell id="xdf3shguOyV5-pTlWLsu-5" value="RIWAYAT&lt;div&gt;ORDER&lt;/div&gt;" style="ellipse;whiteSpace=wrap;html=1;" vertex="1" parent="1">
          <mxGeometry x="361" y="270" width="120" height="60" as="geometry" />
        </mxCell>
        <mxCell id="xdf3shguOyV5-pTlWLsu-6" value="STATISTIK&lt;div&gt;OMZET&lt;/div&gt;" style="ellipse;whiteSpace=wrap;html=1;" vertex="1" parent="1">
          <mxGeometry x="362.5" y="342" width="120" height="60" as="geometry" />
        </mxCell>
        <mxCell id="xdf3shguOyV5-pTlWLsu-8" value="CASHIER ANGKRINGAN" style="text;html=1;align=center;verticalAlign=middle;whiteSpace=wrap;rounded=0;" vertex="1" parent="1">
          <mxGeometry x="343.5" y="90" width="156" height="30" as="geometry" />
        </mxCell>
        <mxCell id="xdf3shguOyV5-pTlWLsu-9" value="USER" style="shape=umlActor;verticalLabelPosition=bottom;verticalAlign=top;html=1;outlineConnect=0;" vertex="1" parent="1">
          <mxGeometry x="130" y="200" width="90" height="150" as="geometry" />
        </mxCell>
        <mxCell id="xdf3shguOyV5-pTlWLsu-13" value="" style="endArrow=none;html=1;rounded=0;entryX=0;entryY=0.5;entryDx=0;entryDy=0;" edge="1" parent="1" target="xdf3shguOyV5-pTlWLsu-3">
          <mxGeometry width="50" height="50" relative="1" as="geometry">
            <mxPoint x="220" y="250" as="sourcePoint" />
            <mxPoint x="270" y="200" as="targetPoint" />
            <Array as="points">
              <mxPoint x="290" y="170" />
            </Array>
          </mxGeometry>
        </mxCell>
        <mxCell id="xdf3shguOyV5-pTlWLsu-14" value="" style="endArrow=none;html=1;rounded=0;" edge="1" parent="1" target="xdf3shguOyV5-pTlWLsu-4">
          <mxGeometry width="50" height="50" relative="1" as="geometry">
            <mxPoint x="220" y="250" as="sourcePoint" />
            <mxPoint x="371" y="170" as="targetPoint" />
          </mxGeometry>
        </mxCell>
        <mxCell id="xdf3shguOyV5-pTlWLsu-15" value="" style="endArrow=none;html=1;rounded=0;entryX=0;entryY=0.5;entryDx=0;entryDy=0;" edge="1" parent="1" target="xdf3shguOyV5-pTlWLsu-5">
          <mxGeometry width="50" height="50" relative="1" as="geometry">
            <mxPoint x="220" y="250" as="sourcePoint" />
            <mxPoint x="270" y="200" as="targetPoint" />
          </mxGeometry>
        </mxCell>
        <mxCell id="xdf3shguOyV5-pTlWLsu-16" value="" style="endArrow=none;html=1;rounded=0;entryX=0;entryY=0.5;entryDx=0;entryDy=0;" edge="1" parent="1" target="xdf3shguOyV5-pTlWLsu-6">
          <mxGeometry width="50" height="50" relative="1" as="geometry">
            <mxPoint x="220" y="250" as="sourcePoint" />
            <mxPoint x="270" y="200" as="targetPoint" />
            <Array as="points">
              <mxPoint x="280" y="340" />
            </Array>
          </mxGeometry>
        </mxCell>
      </root>
    </mxGraphModel>
  </diagram>
</mxfile>
